<?xml version="1.0" encoding="utf-8"?>
<!-- Generator: Adobe Illustrator 19.0.0, SVG Export Plug-In . SVG Version: 6.00 Build 0)  -->
<svg version="1.1" id="Layer_1" xmlns="http://www.w3.org/2000/svg" xmlns:xlink="http://www.w3.org/1999/xlink" x="0px" y="0px"
	 viewBox="2094 127 4800 540" style="enable-background:new 2094 127 4800 540;" xml:space="preserve">
<style type="text/css">
	.st0{fill:none;}
	.st1{fill:#C8DE81;}
	.st2{fill:#E9DCB7;}
	.st3{fill:#A8CFE2;}
	.st4{fill:#FFFFFF;}
	.st5{fill:#9B99A7;}
	.st6{fill:none;stroke:#1E1D29;stroke-width:1.8;stroke-miterlimit:10;}
	.st7{opacity:0.31;fill:#FFFFFF;enable-background:new    ;}
	.st8{fill:#494054;stroke:#1E1D29;stroke-width:5;stroke-miterlimit:10;}
	.st9{fill:#D1962A;}
	.st10{opacity:0.6;}
	.st11{fill:#696071;}
	.st12{fill:none;stroke:#1E1D29;stroke-width:2.6;stroke-miterlimit:10;}
	.st13{fill:#494054;}
	.st14{fill:none;stroke:#1E1D29;stroke-width:5;stroke-miterlimit:10;}
	.st15{opacity:0.55;}
	.st16{fill:#020202;}
	.st17{fill:none;stroke:#020202;stroke-width:5;stroke-miterlimit:10;}
	.st18{fill:none;stroke:#1E1D29;stroke-width:3;stroke-miterlimit:10;}
	.st19{fill:none;stroke:#020202;stroke-width:3;stroke-miterlimit:10;}
	.st20{fill:#83788A;}
	.st21{fill:#D88F37;}
	.st22{fill:none;stroke:#1E1D29;stroke-width:2;stroke-miterlimit:10;}
	.st23{fill:none;stroke:#1E1D29;stroke-miterlimit:10;}
	.st24{fill:#1E1D29;}
	.st25{fill:#7A6E82;}
	.st26{fill:none;stroke:#020202;stroke-width:2;stroke-miterlimit:10;}
	.st27{opacity:0.65;}
	.st28{fill:none;stroke:#FFFFFF;stroke-miterlimit:10;}
	.st29{opacity:0.27;fill:#FFFFFF;enable-background:new    ;}
	.st30{fill:#FFD397;}
	.st31{fill:none;stroke:#1E1D29;stroke-width:1.2;stroke-miterlimit:10;}
	.st32{fill:none;stroke:#FFD397;stroke-width:2;stroke-linecap:round;stroke-miterlimit:10;}
	.st33{fill:none;stroke:#020202;stroke-miterlimit:10;}
	.st34{opacity:0.2;}
	.st35{fill:url(#XMLID_287_);}
	.st36{fill:#543813;stroke:#1E1D29;stroke-width:5;stroke-miterlimit:10;}
	.st37{opacity:0.46;fill:#FFFFFF;stroke:#1E1D29;stroke-width:0.25;stroke-miterlimit:10;enable-background:new    ;}
	.st38{fill:#7A707D;}
	.st39{font-family:'ArialMT';}
	.st40{font-size:195.1188px;}
	.st41{letter-spacing:1.8;}
</style>
<pattern  x="2094" y="667" width="144.1" height="138.4" patternUnits="userSpaceOnUse" id="XMLID_285_" viewBox="100.1 -216.7 144.1 138.4" style="overflow:visible;">
	<g>
		<polygon class="st0" points="100.1,-78.3 244.2,-78.3 244.2,-216.7 100.1,-216.7 		"/>
		<g id="XMLID_59_">
			<polygon id="XMLID_216_" class="st0" points="100.1,-216.7 244.2,-216.7 244.2,-78.3 100.1,-78.3 			"/>
			<g id="XMLID_61_">
				<polygon id="XMLID_215_" class="st0" points="100.1,-216.7 244.2,-216.7 244.2,-78.4 100.1,-78.4 				"/>
				<g id="XMLID_213_">
					<path id="XMLID_214_" class="st1" d="M311.1-58.2c-11.8-1.4-19.4,0.3-22.7,3.1c-3,2.5-5,5.4-2.2,11.9
						c2.9,7.1,1.5,14.7-5.5,15.9c-6.2,1-10.9-4.8-11.2-12.3c-0.2-5.2-1.9-8.3-5.5-7.6s-4.6,5.9-3.6,11.8c1.4,8.1,5.5,11.8,6.2,20.2
						c0.5,6.1-2.9,13.7-12.5,15c-9.3,1.4-15.9-4.3-16.6-10.5c-0.7-6.6,3.6-10.9,3.1-17.6s-4-10.2-5.9-17.3
						c-2.8-10.5,1.2-19,7.8-22.7c14.7-8.1,22.8,3.6,36,1.6c10.9-1.7,23.3-18.2,33-19.5c8.2-1.2,13.8,4.7,15,14
						C327.7-62.9,321.8-57,311.1-58.2z M268.9-57.7c0-2.3-1.9-4.2-4.2-4.2c-2.3,0-4.2,1.9-4.2,4.2s1.9,4.2,4.2,4.2
						C267.1-53.5,268.9-55.4,268.9-57.7z M318.4-73.1c0-1-0.8-1.7-1.7-1.7S315-74,315-73.1s0.8,1.7,1.7,1.7S318.4-72.1,318.4-73.1z"
						/>
				</g>
				<g id="XMLID_193_">
					<path id="XMLID_212_" class="st2" d="M148.9-77.4c0,7.2,4.6,13.8-1,16.3c-8.5,3.8-28-14.3-28-36.2c0-12,8.7-19,17.8-19
						c12.3,0,18,8.2,18,17.5C155.7-89.4,148.9-85.6,148.9-77.4z M143.5-82.8c0-1.1-0.9-2.1-2.1-2.1c-1.1,0-2.1,0.9-2.1,2.1
						c0,1.1,0.9,2.1,2.1,2.1S143.5-81.6,143.5-82.8z"/>
					<path id="XMLID_211_" class="st3" d="M223.6-53.9c-7.9,2.7-19.4-15.3-17.7-27c1.2-8.2,7.1-13.2,13.1-14.2
						c7.5-1.3,12.9,2.6,13.3,7.2c0.5,6.3-3.6,7.5-4.2,15C227.5-65.8,231.8-56.7,223.6-53.9z M219.8-81.4c0-1.4-1.2-2.6-2.6-2.6
						s-2.6,1.2-2.6,2.6s1.2,2.6,2.6,2.6C218.6-78.8,219.8-80,219.8-81.4z"/>
					<path id="XMLID_204_" class="st2" d="M119.5-76.4c0,1.4-1.2,2.6-2.6,2.6s-2.6-1.2-2.6-2.6s1.2-2.6,2.6-2.6
						S119.5-77.8,119.5-76.4z"/>
					<path id="XMLID_203_" class="st3" d="M184.7-84.1c0.7,8.1,12.7,7,17.9,14.2c10.5,14.5-1.2,46.4-21.6,46.4
						c-11.7,0-24.2-9.7-24.2-29.2c0-15.8,10.2-21.5,8.3-42.2c-1-10.8-12.5-20.3-12.5-34.8c0-5.9,3.6-13.4,11.6-13.4
						c7.1,0,10.8,6,10.8,12.9c0,6.8-5.4,15.7,1.4,19c5.2,2.6,13.2-4.8,19.5-6.8c5.2-1.6,12.4,0.2,14.8,8.5
						c2.5,8.9-3.3,14.7-11.6,16.7C192.6-91.2,184.1-90.5,184.7-84.1z M168.7-114.6c0-1.8-1.5-3.3-3.3-3.3c-1.8,0-3.3,1.5-3.3,3.3
						s1.5,3.3,3.3,3.3C167.2-111.4,168.7-112.8,168.7-114.6z M194.7-105c1.3,0,2.3-1,2.3-2.3s-1-2.3-2.3-2.3c-1.3,0-2.3,1-2.3,2.3
						C192.3-106,193.4-105,194.7-105z M174.7-45.3c0-1.8-1.5-3.3-3.3-3.3c-1.8,0-3.3,1.5-3.3,3.3s1.5,3.3,3.3,3.3
						C173.2-42,174.7-43.5,174.7-45.3z"/>
					<path id="XMLID_201_" class="st1" d="M167-58.2c-11.8-1.4-19.4,0.3-22.7,3.1c-3,2.5-5,5.4-2.2,11.9c2.9,7.1,1.5,14.7-5.5,15.9
						c-6.2,1-10.9-4.8-11.2-12.3c-0.2-5.2-1.9-8.3-5.5-7.6s-4.6,5.9-3.6,11.8c1.4,8.1,5.5,11.8,6.2,20.2c0.5,6.1-2.9,13.7-12.5,15
						c-9.3,1.4-15.9-4.3-16.6-10.5c-0.7-6.6,3.6-10.9,3.1-17.6s-4-10.2-5.9-17.3c-2.8-10.5,1.2-19,7.8-22.7
						c14.7-8.1,22.8,3.6,36,1.6c10.9-1.7,23.3-18.2,33-19.5c8.2-1.2,13.8,4.7,15,14C183.6-62.9,177.7-57,167-58.2z M124.8-57.7
						c0-2.3-1.9-4.2-4.1-4.2c-2.3,0-4.2,1.9-4.2,4.2s1.9,4.2,4.2,4.2S124.8-55.4,124.8-57.7z M174.3-73.1c0-1-0.8-1.7-1.7-1.7
						c-1,0-1.7,0.8-1.7,1.7s0.8,1.7,1.7,1.7C173.5-71.3,174.3-72.1,174.3-73.1z"/>
				</g>
				<g id="XMLID_188_">
					<path id="XMLID_192_" class="st3" d="M290.4-104.7c0,6.2-4.2,10.7-8.6,11.6c-4.5,0.9-8.3-1.3-13,1.2
						c-4.8,2.6-7.1,11.1-16.8,11.1c-8,0-15.2-8-15.2-18.8c0-20.2,13.1-29.2,25.6-29.2C279-129,290.4-116.3,290.4-104.7z
						 M270.7-119.1c0-2.1-1.7-3.8-3.8-3.8c-2.1,0-3.8,1.7-3.8,3.8s1.7,3.8,3.8,3.8S270.7-117,270.7-119.1z"/>
					<path id="XMLID_189_" class="st1" d="M311.1-196.6c-11.8-1.4-19.4,0.3-22.7,3.1c-3,2.5-5,5.4-2.2,11.9
						c2.9,7.1,1.5,14.7-5.5,15.9c-6.2,1-10.9-4.8-11.2-12.3c-0.2-5.2-1.9-8.3-5.5-7.6c-3.6,0.7-4.6,5.9-3.6,11.8
						c1.4,8.1,5.5,11.8,6.2,20.2c0.5,6.1-2.9,13.7-12.5,15c-9.3,1.4-15.9-4.3-16.6-10.5c-0.7-6.6,3.6-10.9,3.1-17.6
						s-4-10.2-5.9-17.3c-2.8-10.5,1.2-19,7.8-22.7c14.7-8.1,22.8,3.6,36,1.6c10.9-1.7,23.3-18.2,33-19.5c8.2-1.2,13.8,4.7,15,14
						C327.7-201.2,321.8-195.3,311.1-196.6z M268.9-196.1c0-2.3-1.9-4.2-4.2-4.2c-2.3,0-4.2,1.9-4.2,4.2c0,2.3,1.9,4.2,4.2,4.2
						C267.1-191.9,268.9-193.8,268.9-196.1z M318.4-211.4c0-1-0.8-1.7-1.7-1.7s-1.7,0.8-1.7,1.7c0,1,0.8,1.7,1.7,1.7
						S318.4-210.5,318.4-211.4z"/>
				</g>
				<g id="XMLID_66_">
					<path id="XMLID_172_" class="st3" d="M131.9-133.1c-14,2-21.2-13.3-17.7-20.3c3.7-7.3,12.1-4.2,19.5-4.2
						c9.7,0,16.4-7.6,20.4-2.3C158.4-154.3,149.1-135.5,131.9-133.1z M132.4-150.6c0-1.2-1-2.2-2.2-2.2c-1.2,0-2.2,1-2.2,2.2
						s1,2.2,2.2,2.2C131.4-148.3,132.4-149.3,132.4-150.6z"/>
					<path id="XMLID_90_" class="st2" d="M148.9-215.8c0,7.2,4.6,13.8-1,16.3c-8.5,3.8-28-14.3-28-36.2c0-12,8.7-19,17.8-19
						c12.3,0,18,8.2,18,17.5C155.7-227.8,148.9-224,148.9-215.8z M143.5-221.1c0-1.1-0.9-2.1-2.1-2.1c-1.1,0-2.1,0.9-2.1,2.1
						c0,1.1,0.9,2.1,2.1,2.1C142.6-219.1,143.5-220,143.5-221.1z"/>
					<path id="XMLID_89_" class="st3" d="M146.3-104.7c0,6.2-4.2,10.7-8.6,11.6c-4.5,0.9-8.3-1.3-13,1.2
						c-4.8,2.6-7.1,11.1-16.8,11.1c-8,0-15.2-8-15.2-18.8c0-20.2,13.1-29.2,25.6-29.2C134.8-129,146.3-116.3,146.3-104.7z
						 M126.5-119.1c0-2.1-1.7-3.8-3.8-3.8c-2.1,0-3.8,1.7-3.8,3.8s1.7,3.8,3.8,3.8S126.5-117,126.5-119.1z"/>
					<path id="XMLID_87_" class="st1" d="M145.6-128.4c0,1.3-1.1,2.4-2.4,2.4s-2.4-1.1-2.4-2.4c0-1.3,1.1-2.4,2.4-2.4
						C144.5-130.9,145.6-129.8,145.6-128.4z"/>
					<path id="XMLID_86_" class="st3" d="M229.3-146.9c-3.2,4.7,1,10.7-1.4,15.2c-2.4,4.5-6.7,5-9.9,2.6c-3.6-2.8-3.4-6.6-8.3-8.8
						c-5.5-2.5-18,2.2-19.7-7.3c-0.9-4.8,2.4-8.6,7.3-9.7c6.1-1.4,9.4-0.2,15.4-3.1c6.1-2.9,11.2-9,22.1-12.1
						c10.4-3,16.1,1.6,16.6,5.9C252.4-155.8,234.3-154.3,229.3-146.9z M227-154.4c0-1.2-1-2.2-2.2-2.2c-1.2,0-2.2,1-2.2,2.2
						c0,1.2,1,2.2,2.2,2.2C226-152.1,227-153.1,227-154.4z"/>
					<path id="XMLID_85_" class="st2" d="M256.2-107.8c0,17.2-14.5,25.5-27,22.8c-10.3-2.2-12.8-17.3-16.7-26.2
						c-3.7-8.6-8.8-22.5-20.2-22.5c-11.2,0-12.8,14.5-23.7,14.5c-11,0-24.5-15.7-24.5-39.7c0-14.7,9.8-31.5,20.8-30.7
						c11.7,0.8,4.5,19.7,15.3,19.7c9.5,0,7.9-16.3,9.2-23.3c1.7-9,6.8-14.2,18.5-13.2c14.4,1.2,22.3,13.5,18.9,23.3
						c-4,11.5-23.9,17.3-21.5,30.5c1.3,7.6,13,12,26,16.2C245.9-131.6,256.2-124.9,256.2-107.8z M211.3-183.6c0,1.8,1.5,3.3,3.3,3.3
						c1.8,0,3.3-1.5,3.3-3.3s-1.5-3.3-3.3-3.3C212.7-186.9,211.3-185.4,211.3-183.6z M164.6-158.7c0-1-0.8-1.7-1.7-1.7
						c-1,0-1.7,0.8-1.7,1.7c0,1,0.8,1.7,1.7,1.7S164.6-157.7,164.6-158.7z M182.1-148c0-2.1-1.7-3.8-3.8-3.8s-3.8,1.7-3.8,3.8
						s1.7,3.8,3.8,3.8C180.3-144.2,182.1-145.9,182.1-148z M201.9-163.5c0-0.9-0.7-1.6-1.6-1.6c-0.9,0-1.6,0.7-1.6,1.6
						c0,0.9,0.7,1.6,1.6,1.6C201.2-162,201.9-162.7,201.9-163.5z M231.6-108.8c0-1.8-1.4-3.2-3.2-3.2c-1.8,0-3.2,1.4-3.2,3.2
						s1.4,3.2,3.2,3.2C230.2-105.7,231.6-107.1,231.6-108.8z"/>
					<path id="XMLID_84_" class="st3" d="M223.6-192.3c-7.9,2.7-19.4-15.3-17.7-27c1.2-8.2,7.1-13.2,13.1-14.2
						c7.5-1.3,12.9,2.6,13.3,7.2c0.5,6.3-3.6,7.5-4.2,15C227.5-204.2,231.8-195.1,223.6-192.3z M219.8-219.8c0-1.4-1.2-2.6-2.6-2.6
						s-2.6,1.2-2.6,2.6c0,1.4,1.2,2.6,2.6,2.6C218.6-217.2,219.8-218.3,219.8-219.8z"/>
					<path id="XMLID_83_" class="st2" d="M119.5-214.7c0,1.4-1.2,2.6-2.6,2.6s-2.6-1.2-2.6-2.6c0-1.4,1.2-2.6,2.6-2.6
						C118.3-217.3,119.5-216.2,119.5-214.7z"/>
					<path id="XMLID_82_" class="st2" d="M253.4-128c0-8.4-5.1-15.2-11.3-15.2c-6.2,0-11.3,6.8-11.3,15.2s5.1,12.4,11.3,12.4
						S253.4-119.6,253.4-128z"/>
					<path id="XMLID_81_" class="st3" d="M184.7-222.5c0.7,8.1,12.7,7,17.9,14.2c10.5,14.5-1.2,46.4-21.6,46.4
						c-11.7,0-24.2-9.7-24.2-29.2c0-15.8,10.2-21.5,8.3-42.2c-1-10.8-12.5-20.3-12.5-34.8c0-5.9,3.6-13.4,11.6-13.4
						c7.1,0,10.8,6,10.8,12.9c0,6.8-5.4,15.7,1.4,19c5.2,2.6,13.2-4.8,19.5-6.8c5.2-1.6,12.4,0.2,14.8,8.5
						c2.5,8.9-3.3,14.7-11.6,16.7C192.6-229.6,184.1-228.9,184.7-222.5z M168.7-253c0-1.8-1.5-3.3-3.3-3.3c-1.8,0-3.3,1.5-3.3,3.3
						c0,1.8,1.5,3.3,3.3,3.3C167.2-249.7,168.7-251.2,168.7-253z M194.7-243.3c1.3,0,2.3-1,2.3-2.3s-1-2.3-2.3-2.3
						c-1.3,0-2.3,1-2.3,2.3C192.3-244.4,193.4-243.3,194.7-243.3z M174.7-183.6c0-1.8-1.5-3.3-3.3-3.3c-1.8,0-3.3,1.5-3.3,3.3
						s1.5,3.3,3.3,3.3C173.2-180.4,174.7-181.8,174.7-183.6z"/>
					<path id="XMLID_80_" class="st1" d="M167-196.6c-11.8-1.4-19.4,0.3-22.7,3.1c-3,2.5-5,5.4-2.2,11.9c2.9,7.1,1.5,14.7-5.5,15.9
						c-6.2,1-10.9-4.8-11.2-12.3c-0.2-5.2-1.9-8.3-5.5-7.6c-3.6,0.7-4.6,5.9-3.6,11.8c1.4,8.1,5.5,11.8,6.2,20.2
						c0.5,6.1-2.9,13.7-12.5,15c-9.3,1.4-15.9-4.3-16.6-10.5c-0.7-6.6,3.6-10.9,3.1-17.6s-4-10.2-5.9-17.3
						c-2.8-10.5,1.2-19,7.8-22.7c14.7-8.1,22.8,3.6,36,1.6c10.9-1.7,23.3-18.2,33-19.5c8.2-1.2,13.8,4.7,15,14
						C183.6-201.2,177.7-195.3,167-196.6z M124.8-196.1c0-2.3-1.9-4.2-4.1-4.2c-2.3,0-4.2,1.9-4.2,4.2c0,2.3,1.9,4.2,4.2,4.2
						S124.8-193.8,124.8-196.1z M174.3-211.4c0-1-0.8-1.7-1.7-1.7c-1,0-1.7,0.8-1.7,1.7c0,1,0.8,1.7,1.7,1.7
						S174.3-210.5,174.3-211.4z"/>
					<path id="XMLID_79_" class="st1" d="M230.3-174.3c0,0.8-0.6,1.4-1.4,1.4s-1.4-0.6-1.4-1.4s0.6-1.4,1.4-1.4
						C229.7-175.6,230.3-175,230.3-174.3z"/>
					<path id="XMLID_78_" class="st2" d="M235.8-212.7c0,1.2-1,2.2-2.2,2.2c-1.2,0-2.3-1-2.3-2.2s1-2.2,2.3-2.2
						S235.8-213.9,235.8-212.7z"/>
					<path id="XMLID_77_" class="st3" d="M152.3-189.5c0,0.7-0.5,1.2-1.2,1.2c-0.7,0-1.2-0.5-1.2-1.2s0.5-1.2,1.2-1.2
						C151.8-190.7,152.3-190.1,152.3-189.5z"/>
					<path id="XMLID_76_" class="st3" d="M148.7-121c0,0.8-0.6,1.4-1.4,1.4s-1.4-0.6-1.4-1.4c0-0.8,0.6-1.4,1.4-1.4
						S148.7-121.8,148.7-121z"/>
					<path id="XMLID_75_" class="st2" d="M233.2-143c0,0.7-0.5,1.2-1.2,1.2c-0.7,0-1.2-0.5-1.2-1.2s0.5-1.2,1.2-1.2
						C232.7-144.2,233.2-143.6,233.2-143z"/>
					<path id="XMLID_74_" class="st1" d="M196-125c0,1.9-1.5,3.4-3.4,3.4s-3.4-1.5-3.4-3.4s1.5-3.4,3.4-3.4
						C194.4-128.4,196-126.9,196-125z"/>
					<path id="XMLID_73_" class="st2" d="M200.9-85.2c0,1.2-0.9,2.1-2.1,2.1s-2.1-0.9-2.1-2.1s0.9-2.1,2.1-2.1
						S200.9-86.3,200.9-85.2z"/>
					<path id="XMLID_72_" class="st2" d="M162.1-91.5c0,0.9-0.7,1.6-1.6,1.6c-0.9,0-1.6-0.7-1.6-1.6c0-0.9,0.7-1.6,1.6-1.6
						C161.4-93,162.1-92.3,162.1-91.5z"/>
					<path id="XMLID_71_" class="st1" d="M235.8-205.5c0,1.4-1.2,2.6-2.6,2.6s-2.6-1.2-2.6-2.6c0-1.4,1.2-2.6,2.6-2.6
						C234.6-208.1,235.8-207,235.8-205.5z"/>
					<path id="XMLID_70_" class="st3" d="M225.6-170.7c0,1.3-1.1,2.4-2.4,2.4s-2.4-1.1-2.4-2.4s1.1-2.4,2.4-2.4
						C224.5-173,225.6-172,225.6-170.7z"/>
					<path id="XMLID_69_" class="st2" d="M127.8-164.1c0,1.4-1.2,2.6-2.6,2.6s-2.6-1.2-2.6-2.6c0-1.4,1.2-2.6,2.6-2.6
						S127.8-165.5,127.8-164.1z"/>
					<path id="XMLID_68_" class="st3" d="M122.8-171.2c0,0.7-0.6,1.3-1.3,1.3c-0.7,0-1.3-0.6-1.3-1.3c0-0.7,0.6-1.3,1.3-1.3
						S122.8-171.9,122.8-171.2z"/>
					<path id="XMLID_67_" class="st2" d="M187-119.3c0,0.9-0.7,1.6-1.6,1.6c-0.9,0-1.6-0.7-1.6-1.6c0-0.9,0.7-1.6,1.6-1.6
						C186.3-120.8,187-120.1,187-119.3z"/>
				</g>
				<g id="XMLID_62_">
					<path id="XMLID_65_" class="st3" d="M85.1-146.9c-3.2,4.7,1,10.7-1.4,15.2c-2.4,4.5-6.7,5-9.9,2.6c-3.6-2.8-3.4-6.6-8.3-8.8
						c-5.5-2.5-18,2.2-19.7-7.3c-0.9-4.8,2.4-8.6,7.3-9.7c6.1-1.4,9.4-0.2,15.4-3.1c6.1-2.9,11.2-9,22.1-12.1
						c10.4-3,16.1,1.6,16.6,5.9C108.3-155.8,90.1-154.3,85.1-146.9z M82.9-154.4c0-1.2-1-2.2-2.2-2.2s-2.2,1-2.2,2.2
						c0,1.2,1,2.2,2.2,2.2C81.9-152.1,82.9-153.1,82.9-154.4z"/>
					<path id="XMLID_64_" class="st2" d="M112.1-107.8c0,17.2-14.5,25.5-27,22.8c-10.3-2.2-12.8-17.3-16.7-26.2
						c-3.7-8.6-8.8-22.5-20.2-22.5c-11.2,0-12.8,14.5-23.7,14.5c-11,0-24.5-15.7-24.5-39.7c0-14.7,9.8-31.5,20.8-30.7
						c11.7,0.8,4.5,19.7,15.3,19.7c9.5,0,7.9-16.3,9.2-23.3c1.7-9,6.8-14.2,18.5-13.2c14.4,1.2,22.3,13.5,18.9,23.3
						c-4,11.5-23.9,17.3-21.5,30.5c1.3,7.6,13,12,26,16.2C101.8-131.6,112.1-124.9,112.1-107.8z M67.1-183.6c0,1.8,1.5,3.3,3.3,3.3
						s3.3-1.5,3.3-3.3s-1.5-3.3-3.3-3.3S67.1-185.4,67.1-183.6z M20.5-158.7c0-1-0.8-1.7-1.7-1.7c-1,0-1.7,0.8-1.7,1.7
						c0,1,0.8,1.7,1.7,1.7S20.5-157.7,20.5-158.7z M37.9-148c0-2.1-1.7-3.8-3.8-3.8s-3.8,1.7-3.8,3.8s1.7,3.8,3.8,3.8
						S37.9-145.9,37.9-148z M57.8-163.5c0-0.9-0.7-1.6-1.6-1.6c-0.9,0-1.6,0.7-1.6,1.6c0,0.9,0.7,1.6,1.6,1.6
						C57.1-162,57.8-162.7,57.8-163.5z M87.5-108.8c0-1.8-1.4-3.2-3.2-3.2c-1.8,0-3.2,1.4-3.2,3.2s1.4,3.2,3.2,3.2
						C86-105.7,87.5-107.1,87.5-108.8z"/>
					<path id="XMLID_63_" class="st2" d="M109.3-128c0-8.4-5.1-15.2-11.3-15.2s-11.3,6.8-11.3,15.2s5.1,12.4,11.3,12.4
						S109.3-119.6,109.3-128z"/>
				</g>
			</g>
		</g>
	</g>
</pattern>
<text id="XMLID_1_" transform="matrix(1.1029 0 0 1 -706.1851 375.356)" class="st4 st39 st40 st41">GUITAR</text>
<path id="XMLID_3_" class="st4" d="M-137.4,541.9h-630.4c-33,0-59.6-27.6-59.6-61.5v-15.8c0-34.1,26.8-61.5,59.6-61.5h630.4
	c33,0,59.6,27.6,59.6,61.5v15.7C-77.8,514.3-104.5,541.9-137.4,541.9z"/>
<rect id="XMLID_47_" x="-611.9" y="432.5" class="st0" width="551.5" height="80"/>
<text id="XMLID_48_" transform="matrix(0.9686 0 0 1 -611.8433 507.0171)" class="st39" style="font-size:104.9903px;">CRACK</text>
<g id="XMLID_51_">
	<path id="XMLID_49_" class="st5" d="M-685.4,220l1.9,5.2c0.1,0.4-0.1,0.8-0.4,0.9c-1,0.4-2.8,1.2-4.4,3.1c-0.2,0.2-0.2,0.5-0.1,0.7
		l1.6,4.2c0.1,0.2,0.3,0.4,0.5,0.4c1.6,0.2,8.1,0.9,12.9-4.9c0.2-0.2,0.2-0.5,0.1-0.7l-1.6-4.3c-0.1-0.2-0.3-0.4-0.6-0.5
		c-0.8-0.1-2.6-0.1-4.7,0.6c-0.4,0.1-0.7-0.1-0.8-0.4l-2-5.1L-685.4,220z"/>
	<path id="XMLID_50_" class="st6" d="M-685.4,220l1.9,5.2c0.1,0.4-0.1,0.8-0.4,0.9c-1,0.4-2.8,1.2-4.4,3.1c-0.2,0.2-0.2,0.5-0.1,0.7
		l1.6,4.2c0.1,0.2,0.3,0.4,0.5,0.4c1.6,0.2,8.1,0.9,12.9-4.9c0.2-0.2,0.2-0.5,0.1-0.7l-1.6-4.3c-0.1-0.2-0.3-0.4-0.6-0.5
		c-0.8-0.1-2.6-0.1-4.7,0.6c-0.4,0.1-0.7-0.1-0.8-0.4l-2-5.1L-685.4,220z"/>
</g>
<g id="XMLID_54_">
	<path id="XMLID_52_" class="st5" d="M-663.3,211.4l1.8,4.9c0.1,0.3-0.1,0.7-0.4,0.8c-0.9,0.4-2.6,1.2-4.2,3.1
		c-0.2,0.2-0.2,0.5-0.1,0.7l1.6,4c0.1,0.2,0.3,0.4,0.5,0.4c1.5,0.2,7.7,0.6,12.2-5c0.2-0.2,0.2-0.4,0.1-0.7l-1.7-4.1
		c-0.1-0.2-0.3-0.4-0.6-0.4c-0.8-0.1-2.5,0-4.5,0.7c-0.3,0.1-0.7-0.1-0.8-0.4l-1.9-4.8L-663.3,211.4z"/>
	<path id="XMLID_53_" class="st6" d="M-663.3,211.4l1.8,4.9c0.1,0.3-0.1,0.7-0.4,0.8c-0.9,0.4-2.6,1.2-4.2,3.1
		c-0.2,0.2-0.2,0.5-0.1,0.7l1.6,4c0.1,0.2,0.3,0.4,0.5,0.4c1.5,0.2,7.7,0.6,12.2-5c0.2-0.2,0.2-0.4,0.1-0.7l-1.7-4.1
		c-0.1-0.2-0.3-0.4-0.6-0.4c-0.8-0.1-2.5,0-4.5,0.7c-0.3,0.1-0.7-0.1-0.8-0.4l-1.9-4.8L-663.3,211.4z"/>
</g>
<g id="XMLID_57_">
	<path id="XMLID_55_" class="st5" d="M-640.7,201.9l1.7,4.8c0.1,0.3-0.1,0.7-0.4,0.8c-0.9,0.4-2.5,1.1-4.1,2.9
		c-0.2,0.2-0.2,0.4-0.1,0.6l1.5,3.9c0.1,0.2,0.2,0.4,0.5,0.4c1.5,0.2,7.3,0.8,11.8-4.5c0.2-0.2,0.2-0.4,0.1-0.6l-1.5-3.9
		c-0.1-0.2-0.3-0.4-0.5-0.4c-0.7-0.1-2.4-0.1-4.3,0.5c-0.3,0.1-0.7-0.1-0.8-0.4l-1.9-4.8L-640.7,201.9z"/>
	<path id="XMLID_56_" class="st6" d="M-640.7,201.9l1.7,4.8c0.1,0.3-0.1,0.7-0.4,0.8c-0.9,0.4-2.5,1.1-4.1,2.9
		c-0.2,0.2-0.2,0.4-0.1,0.6l1.5,3.9c0.1,0.2,0.2,0.4,0.5,0.4c1.5,0.2,7.3,0.8,11.8-4.5c0.2-0.2,0.2-0.4,0.1-0.6l-1.5-3.9
		c-0.1-0.2-0.3-0.4-0.5-0.4c-0.7-0.1-2.4-0.1-4.3,0.5c-0.3,0.1-0.7-0.1-0.8-0.4l-1.9-4.8L-640.7,201.9z"/>
</g>
<path id="XMLID_58_" class="st7" d="M-721.1,357.6l17.6-15.6l4.7-4.1l1.1-1l-15.4-17.6c1.1-0.5,2.2-1.1,3.2-2
	c4.8-4.2,5.3-11.4,1.3-16.1c-4.1-4.7-11.2-5-16-0.8c-4.7,4.1-5.3,11.3-1.4,15.9l0,0l17.5,20L-726,352l-10.4-12
	c1.1-0.5,2.2-1.1,3.2-2c4.8-4.2,5.3-11.4,1.3-16.1c-4.1-4.7-11.2-5-16-0.8c-4.7,4.1-5.3,11.3-1.4,15.9l0,0l17.5,20l4.9,5.6
	L-721.1,357.6z"/>
<g id="XMLID_171_">
	
		<image style="overflow:visible;enable-background:new    ;" width="263" height="404" id="XMLID_60_" xlink:href="7991D2B1.jpg"  transform="matrix(0.2384 -1.343363e-002 5.925611e-003 0.2424 -1120.6208 397.9329)">
	</image>
</g>
<path id="XMLID_230_" class="st8" d="M-920.1,389.2c-2.1,4.9-2.1,11.1,2.3,18.8c-5-5.2-10.8-10-14.3-16.2c-3.8-6.8-3.5-13.3-2-18.3
	c1.1-3.6,3.1-6.3,5.8-8.5c2.2-1.9,4.8-3.4,7.6-5.2c2.8-1.7,5.4-3.6,8.3-4.9l11.1,18.7C-901.3,373.6-915.7,378.3-920.1,389.2z"/>
<g id="XMLID_222_">
	<g id="XMLID_227_">
		<path id="XMLID_228_" class="st9" d="M-918.3,438.8c-7.3,4.5-17,7.2-22.9,8.7c0,0-5.6,1.3-13.2,3.8l0,0c-1.7,0.5-3.6,1.1-5.6,1.7
			c-6.1,2.1-12.8,4.7-18.8,7.6c-6.2,3-11.5,7.7-15.2,13.5c-2,3.1-4,6.2-6,9.5c-0.4,0.6-0.8,1.4-1.3,2
			c-27.2,44.9-54.4,103.1-113.9,104.5c-8.2,0.2-16.2-0.7-23.6-2.5c-5.9-1.5-11.7-3.5-17-6.1c-1.3-0.6-2.7-1.3-3.9-2
			c-2.1-1.1-4-2.2-6-3.5c-6.1-3.8-11.7-8.4-16.8-13.6c-3-3-5.9-6.2-8.5-9.6c-4-5-7.6-10.4-10.8-16c0,0,0,0,0-0.1
			c-0.1-0.2-0.2-0.4-0.3-0.6c-0.9-1.6-1.7-3.1-2.5-4.7c-2.4-4.6-4.4-9.3-6.3-14.2c-3.6-9.5-6.1-19.3-7.6-29.3
			c-0.1-0.7-0.2-1.3-0.3-2c-0.5-3.8-0.9-7.8-1.1-11.7c-0.2-2.1-0.2-4.3-0.3-6.4c-0.1-2.2,0-4.6,0.1-6.8c0.1-1.6,0.1-3.2,0.3-4.8
			c0.2-1.7,0.3-3.4,0.5-5.1c2.8-23.4,11.8-45.9,26.7-63.5c2-2.4,4.1-4.6,6.2-6.7c8.5-8.2,18.4-15.1,29.8-19.9
			c15.2-6.5,31.6-8.9,47.8-9.2c0.3,0,0.7,0,1-0.1c6.5-0.2,13.6-0.1,21-0.5c18-0.9,36.6-4.2,48.3-18.1c0,0,4.9-6,17.7-21.5
			c0,0,7.1-7.9,18-14.2l0,0c6.8-4,15.1-7.1,23.9-7.3c2.5,0,5.2,0.2,7.9,0.7c5.2,1,10.7,3.4,16.1,7.2c1.2,0.9,2.5,1.9,3.6,3
			c5.6,4.9,10.2,10.7,14.5,16.9c3.3,4.8,6.3,9.7,9.4,14.5c1.9,3,3.9,5.8,5.8,8.6c3,4.4,5.9,8.8,8.7,13.7c-2.1,0.9-4,2.2-5.9,3.4
			c-0.8,0.5-1.6,1-2.4,1.5c-6.3,3.7-11.4,7.1-13.4,13.7c0,0.1-0.1,0.2-0.1,0.4c-1.4,5-1.6,11.2,2.1,17.9c3.4,6.2,9.2,11,14.3,16.2
			c1.6,2.9,3.9,5.9,6.9,9.2c0,0,0,0,0,0.1c0,0,0,0,0,0.1c0.5,1.1,1.1,2.3,1.4,3.6c0.1,0.3,0.2,0.5,0.2,0.8
			C-907.1,429.1-911.7,434.6-918.3,438.8z"/>
	</g>
	<g id="XMLID_225_" class="st10">
		<path id="XMLID_226_" class="st9" d="M-918.3,438.8c-7.3,4.5-17,7.2-22.9,8.7c0,0-5.6,1.3-13.2,3.8l0,0c-1.7,0.5-3.6,1.1-5.6,1.7
			c-6.1,2.1-12.8,4.7-18.8,7.6c-6.2,3-11.5,7.7-15.2,13.5c-2,3.1-4,6.2-6,9.5c-0.4,0.6-0.8,1.4-1.3,2
			c-27.2,44.9-54.4,103.1-113.9,104.5c-8.2,0.2-16.2-0.7-23.6-2.5c-5.9-1.5-11.7-3.5-17-6.1c-1.3-0.6-2.7-1.3-3.9-2
			c-2.1-1.1-4-2.2-6-3.5c-6.1-3.8-11.7-8.4-16.8-13.6c-3-3-5.9-6.2-8.5-9.6c-4-5-7.6-10.4-10.8-16c0,0,0,0,0-0.1
			c-0.1-0.2-0.2-0.4-0.3-0.6c-0.9-1.6-1.7-3.1-2.5-4.7c-2.4-4.6-4.4-9.3-6.3-14.2c-3.6-9.5-6.1-19.3-7.6-29.3
			c-0.1-0.7-0.2-1.3-0.3-2c-0.5-3.8-0.9-7.8-1.1-11.7c-0.2-2.1-0.2-4.3-0.3-6.4c-0.1-2.2,0-4.6,0.1-6.8c0.1-1.6,0.1-3.2,0.3-4.8
			c0.2-1.7,0.3-3.4,0.5-5.1c2.8-23.4,11.8-45.9,26.7-63.5c2-2.4,4.1-4.6,6.2-6.7c8.5-8.2,18.4-15.1,29.8-19.9
			c15.2-6.5,31.6-8.9,47.8-9.2c0.3,0,0.7,0,1-0.1c6.5-0.2,13.6-0.1,21-0.5c18-0.9,36.6-4.2,48.3-18.1c0,0,4.9-6,17.7-21.5
			c0,0,7.1-7.9,18-14.2l0,0c6.8-4,15.1-7.1,23.9-7.3c2.5,0,5.2,0.2,7.9,0.7c5.2,1,10.7,3.4,16.1,7.2c1.2,0.9,2.5,1.9,3.6,3
			c5.6,4.9,10.2,10.7,14.5,16.9c3.3,4.8,6.3,9.7,9.4,14.5c1.9,3,3.9,5.8,5.8,8.6c3,4.4,5.9,8.8,8.7,13.7c-2.1,0.9-4,2.2-5.9,3.4
			c-0.8,0.5-1.6,1-2.4,1.5c-6.3,3.7-11.4,7.1-13.4,13.7c0,0.1-0.1,0.2-0.1,0.4c-1.4,5-1.6,11.2,2.1,17.9c3.4,6.2,9.2,11,14.3,16.2
			c1.6,2.9,3.9,5.9,6.9,9.2c0,0,0,0,0,0.1c0,0,0,0,0,0.1c0.5,1.1,1.1,2.3,1.4,3.6c0.1,0.3,0.2,0.5,0.2,0.8
			C-907.1,429.1-911.7,434.6-918.3,438.8z"/>
	</g>
</g>
<g id="XMLID_218_">
	<path id="XMLID_220_" class="st11" d="M-716.6,184.7c-2.1,1.1-3.7,3-4.4,5.2c-1,3.5-3.4,8.9-8.1,11.6l-254,154.2l20.4,33.9
		L-713,226.3l16.3,2.4c3.2,0.1,6.3-0.5,9.2-1.7l64.3-27.5c0,0,7.8-3.5,2.2-13.3c-1.5-2.7-3.7-5-6.1-6.8c-3.2-2.5-9-7.4-12.2-14.3
		c-1.9-4.3-4-8.4-6.3-12.5l-1.1-1.8c-1.1-1.8-3.3-2.4-5.2-1.3L-716.6,184.7z"/>
	<path id="XMLID_219_" class="st12" d="M-716.6,184.7c-2.1,1.1-3.7,3-4.4,5.2c-1,3.5-3.4,8.9-8.1,11.6l-254,154.2l20.4,33.9
		L-713,226.3l16.3,2.4c3.2,0.1,6.3-0.5,9.2-1.7l64.3-27.5c0,0,7.8-3.5,2.2-13.3c-1.5-2.7-3.7-5-6.1-6.8c-3.2-2.5-9-7.4-12.2-14.3
		c-1.9-4.3-4-8.4-6.3-12.5l-1.1-1.8c-1.1-1.8-3.3-2.4-5.2-1.3L-716.6,184.7z"/>
</g>
<g id="XMLID_202_">
	<g id="XMLID_208_">
		<path id="XMLID_210_" class="st13" d="M-899.2,457.8c0,0-0.9,2-5.6,4.7c-4.3,2.5-11.8,5.7-24.6,8.5l-25.8,4.9l-3.6,0.7
			c-5.8,1.1-10.9,4.2-14.6,8.8c-3.6,4.4-8,10.4-11.2,17c-0.8,1.6-1.4,3.1-2,4.7c0,0-11.3,24.6-28.6,49.1c-2.9,4.2-6.1,8.5-9.5,12.6
			c-2.5,3.1-5.2,6.1-8,9c-15.2,15.2-34.4,25.8-55,29.9c-5.7,1.1-11.5,1.8-17.4,1.8c-5.5,0.1-11.3-0.7-17.4-2.2
			c-19.5-4.9-40.6-18.2-59-40.3c-7.2-8.7-13.9-18.8-20-30.3c5.7,10.3,12.9,19.7,21.2,27.5c14.8,14.1,33.5,23.6,55.3,25.4
			c3.3,0.3,6.6,0.4,10.1,0.3c9.3-0.2,17.8-1.8,25.6-4.5c15.5-5.4,28.4-15.2,39.7-27.2c7.8-8.4,14.9-18,21.4-27.9
			c11.1-16.8,20.8-34.8,30.7-50.8c1.2-1.9,2.3-3.8,3.6-5.6c3.8-5.8,9.1-10.5,15.2-13.5c5.3-2.6,11.2-4.9,16.6-6.8
			c11.2-4,20.9-6.4,20.9-6.4c6.3-1.7,17.2-4.6,24.6-9.8c5.7-4,9.3-9.2,7.3-16.1c-0.4-1.5-1-3-1.7-4.3
			C-909.8,418.5-885.1,445.7-899.2,457.8z"/>
		<path id="XMLID_209_" class="st14" d="M-899.2,457.8c0,0-0.9,2-5.6,4.7c-4.3,2.5-11.8,5.7-24.6,8.5l-25.8,4.9l-3.6,0.7
			c-5.8,1.1-10.9,4.2-14.6,8.8c-3.6,4.4-8,10.4-11.2,17c-0.8,1.6-1.4,3.1-2,4.7c0,0-11.3,24.6-28.6,49.1c-2.9,4.2-6.1,8.5-9.5,12.6
			c-2.5,3.1-5.2,6.1-8,9c-15.2,15.2-34.4,25.8-55,29.9c-5.7,1.1-11.5,1.8-17.4,1.8c-5.5,0.1-11.3-0.7-17.4-2.2
			c-19.5-4.9-40.6-18.2-59-40.3c-7.2-8.7-13.9-18.8-20-30.3c5.7,10.3,12.9,19.7,21.2,27.5c14.8,14.1,33.5,23.6,55.3,25.4
			c3.3,0.3,6.6,0.4,10.1,0.3c9.3-0.2,17.8-1.8,25.6-4.5c15.5-5.4,28.4-15.2,39.7-27.2c7.8-8.4,14.9-18,21.4-27.9
			c11.1-16.8,20.8-34.8,30.7-50.8c1.2-1.9,2.3-3.8,3.6-5.6c3.8-5.8,9.1-10.5,15.2-13.5c5.3-2.6,11.2-4.9,16.6-6.8
			c11.2-4,20.9-6.4,20.9-6.4c6.3-1.7,17.2-4.6,24.6-9.8c5.7-4,9.3-9.2,7.3-16.1c-0.4-1.5-1-3-1.7-4.3
			C-909.8,418.5-885.1,445.7-899.2,457.8z"/>
	</g>
	<g id="XMLID_205_" class="st15">
		<path id="XMLID_207_" class="st16" d="M-899.2,457.8c0,0-0.9,2-5.6,4.7c-4.3,2.5-11.8,5.7-24.6,8.5l-25.8,4.9l-3.6,0.7
			c-5.8,1.1-10.9,4.2-14.6,8.8c-3.6,4.4-8,10.4-11.2,17c-0.8,1.6-1.4,3.1-2,4.7c0,0-11.3,24.6-28.6,49.1c-2.9,4.2-6.1,8.5-9.5,12.6
			c-2.5,3.1-5.2,6.1-8,9c-15.2,15.2-34.4,25.8-55,29.9c-5.7,1.1-11.5,1.8-17.4,1.8c-5.5,0.1-11.3-0.7-17.4-2.2
			c-19.5-4.9-40.6-18.2-59-40.3c-7.2-8.7-13.9-18.8-20-30.3c5.7,10.3,12.9,19.7,21.2,27.5c14.8,14.1,33.5,23.6,55.3,25.4
			c3.3,0.3,6.6,0.4,10.1,0.3c9.3-0.2,17.8-1.8,25.6-4.5c15.5-5.4,28.4-15.2,39.7-27.2c7.8-8.4,14.9-18,21.4-27.9
			c11.1-16.8,20.8-34.8,30.7-50.8c1.2-1.9,2.3-3.8,3.6-5.6c3.8-5.8,9.1-10.5,15.2-13.5c5.3-2.6,11.2-4.9,16.6-6.8
			c11.2-4,20.9-6.4,20.9-6.4c6.3-1.7,17.2-4.6,24.6-9.8c5.7-4,9.3-9.2,7.3-16.1c-0.4-1.5-1-3-1.7-4.3
			C-909.8,418.5-885.1,445.7-899.2,457.8z"/>
		<path id="XMLID_206_" class="st17" d="M-899.2,457.8c0,0-0.9,2-5.6,4.7c-4.3,2.5-11.8,5.7-24.6,8.5l-25.8,4.9l-3.6,0.7
			c-5.8,1.1-10.9,4.2-14.6,8.8c-3.6,4.4-8,10.4-11.2,17c-0.8,1.6-1.4,3.1-2,4.7c0,0-11.3,24.6-28.6,49.1c-2.9,4.2-6.1,8.5-9.5,12.6
			c-2.5,3.1-5.2,6.1-8,9c-15.2,15.2-34.4,25.8-55,29.9c-5.7,1.1-11.5,1.8-17.4,1.8c-5.5,0.1-11.3-0.7-17.4-2.2
			c-19.5-4.9-40.6-18.2-59-40.3c-7.2-8.7-13.9-18.8-20-30.3c5.7,10.3,12.9,19.7,21.2,27.5c14.8,14.1,33.5,23.6,55.3,25.4
			c3.3,0.3,6.6,0.4,10.1,0.3c9.3-0.2,17.8-1.8,25.6-4.5c15.5-5.4,28.4-15.2,39.7-27.2c7.8-8.4,14.9-18,21.4-27.9
			c11.1-16.8,20.8-34.8,30.7-50.8c1.2-1.9,2.3-3.8,3.6-5.6c3.8-5.8,9.1-10.5,15.2-13.5c5.3-2.6,11.2-4.9,16.6-6.8
			c11.2-4,20.9-6.4,20.9-6.4c6.3-1.7,17.2-4.6,24.6-9.8c5.7-4,9.3-9.2,7.3-16.1c-0.4-1.5-1-3-1.7-4.3
			C-909.8,418.5-885.1,445.7-899.2,457.8z"/>
	</g>
</g>
<path id="XMLID_200_" class="st14" d="M-918.3,438.8c-7.3,4.5-17,7.2-22.9,8.7c0,0-5.6,1.3-13.2,3.8l0,0c-1.7,0.5-3.6,1.1-5.6,1.7
	c-6.1,2.1-12.8,4.7-18.8,7.6c-6.2,3-11.5,7.7-15.2,13.5c-2,3.1-4,6.2-6,9.5c-0.4,0.6-0.8,1.4-1.3,2
	c-27.2,44.9-54.4,103.1-113.9,104.5c-8.2,0.2-16.2-0.7-23.6-2.5c-5.9-1.5-11.7-3.5-17-6.1c-1.3-0.6-2.7-1.3-3.9-2
	c-2.1-1.1-4-2.2-6-3.5c-6.1-3.8-11.7-8.4-16.8-13.6c-3-3-5.9-6.2-8.5-9.6c-4-5-7.6-10.4-10.8-16c0,0,0,0,0-0.1
	c-0.1-0.2-0.2-0.4-0.3-0.6c-0.9-1.6-1.7-3.1-2.5-4.7c-2.4-4.6-4.4-9.3-6.3-14.2c-3.6-9.5-6.1-19.3-7.6-29.3c-0.1-0.7-0.2-1.3-0.3-2
	c-0.5-3.8-0.9-7.8-1.1-11.7c-0.2-2.1-0.2-4.3-0.3-6.4c-0.1-2.2,0-4.6,0.1-6.8c0.1-1.6,0.1-3.2,0.3-4.8c0.2-1.7,0.3-3.4,0.5-5.1
	c2.8-23.4,11.8-45.9,26.7-63.5c2-2.4,4.1-4.6,6.2-6.7c8.5-8.2,18.4-15.1,29.8-19.9c15.2-6.5,31.6-8.9,47.8-9.2c0.3,0,0.7,0,1-0.1
	c6.5-0.2,13.6-0.1,21-0.5c18-0.9,36.6-4.2,48.3-18.1c0,0,4.9-6,17.7-21.5c0,0,7.1-7.9,18-14.2l0,0c6.8-4,15.1-7.1,23.9-7.3
	c2.5,0,5.2,0.2,7.9,0.7c5.2,1,10.7,3.4,16.1,7.2c1.2,0.9,2.5,1.9,3.6,3c5.6,4.9,10.2,10.7,14.5,16.9c3.3,4.8,6.3,9.7,9.4,14.5
	c1.9,3,3.9,5.8,5.8,8.6c3,4.4,5.9,8.8,8.7,13.7c-2.1,0.9-4,2.2-5.9,3.4c-0.8,0.5-1.6,1-2.4,1.5c-6.3,3.7-11.4,7.1-13.4,13.7
	c0,0.1-0.1,0.2-0.1,0.4c-1.4,5-1.6,11.2,2.1,17.9c3.4,6.2,9.2,11,14.3,16.2c1.6,2.9,3.9,5.9,6.9,9.2c0,0,0,0,0,0.1c0,0,0,0,0,0.1
	c0.5,1.1,1.1,2.3,1.4,3.6c0.1,0.3,0.2,0.5,0.2,0.8C-907.1,429.1-911.7,434.6-918.3,438.8z"/>
<g id="XMLID_191_">
	<g id="XMLID_197_">
		<path id="XMLID_199_" class="st13" d="M-718.3,183.2c-2.1,1.1-3.7,3-4.4,5.2c-1,3.5-3.4,8.9-8.1,11.6l-253.9,154.1l20.4,33.9
			l249.6-163.2l16.3,2.4c3.2,0.1,6.3-0.5,9.2-1.7l64.3-27.5c0,0,7.8-3.5,2.2-13.3c-1.5-2.7-3.7-5-6.1-6.8c-3.2-2.5-9-7.4-12.2-14.3
			c-1.9-4.3-4-8.4-6.3-12.5l-1.1-1.8c-1.1-1.8-3.3-2.4-5.2-1.3L-718.3,183.2z"/>
		<path id="XMLID_198_" class="st18" d="M-718.3,183.2c-2.1,1.1-3.7,3-4.4,5.2c-1,3.5-3.4,8.9-8.1,11.6l-253.9,154.1l20.4,33.9
			l249.6-163.2l16.3,2.4c3.2,0.1,6.3-0.5,9.2-1.7l64.3-27.5c0,0,7.8-3.5,2.2-13.3c-1.5-2.7-3.7-5-6.1-6.8c-3.2-2.5-9-7.4-12.2-14.3
			c-1.9-4.3-4-8.4-6.3-12.5l-1.1-1.8c-1.1-1.8-3.3-2.4-5.2-1.3L-718.3,183.2z"/>
	</g>
	<g id="XMLID_194_" class="st15">
		<path id="XMLID_196_" class="st16" d="M-718.3,183.2c-2.1,1.1-3.7,3-4.4,5.2c-1,3.5-3.4,8.9-8.1,11.6l-253.9,154.1l20.4,33.9
			l249.6-163.2l16.3,2.4c3.2,0.1,6.3-0.5,9.2-1.7l64.3-27.5c0,0,7.8-3.5,2.2-13.3c-1.5-2.7-3.7-5-6.1-6.8c-3.2-2.5-9-7.4-12.2-14.3
			c-1.9-4.3-4-8.4-6.3-12.5l-1.1-1.8c-1.1-1.8-3.3-2.4-5.2-1.3L-718.3,183.2z"/>
		<path id="XMLID_195_" class="st19" d="M-718.3,183.2c-2.1,1.1-3.7,3-4.4,5.2c-1,3.5-3.4,8.9-8.1,11.6l-253.9,154.1l20.4,33.9
			l249.6-163.2l16.3,2.4c3.2,0.1,6.3-0.5,9.2-1.7l64.3-27.5c0,0,7.8-3.5,2.2-13.3c-1.5-2.7-3.7-5-6.1-6.8c-3.2-2.5-9-7.4-12.2-14.3
			c-1.9-4.3-4-8.4-6.3-12.5l-1.1-1.8c-1.1-1.8-3.3-2.4-5.2-1.3L-718.3,183.2z"/>
	</g>
</g>
<path id="XMLID_190_" class="st20" d="M-981,356.6c0,0,16.1,11,17.5,26.4l241.1-162.3l-9.7-14.8L-981,356.6z"/>
<g id="XMLID_185_">
	<path id="XMLID_187_" class="st21" d="M-1007.2,349.7c24-1.4,43.9,16.3,44.4,39.5s-18.4,43-42.4,44.4s-43.9-16.3-44.4-39.5
		C-1050.2,371-1031.2,351.1-1007.2,349.7z"/>
	<path id="XMLID_186_" class="st22" d="M-1007.2,349.7c24-1.4,43.9,16.3,44.4,39.5s-18.4,43-42.4,44.4s-43.9-16.3-44.4-39.5
		C-1050.2,371-1031.2,351.1-1007.2,349.7z"/>
</g>
<g id="XMLID_182_" class="st10">
	<path id="XMLID_184_" class="st21" d="M-1007.1,355c20.9-1.2,38.3,14.3,38.8,34.5s-16.1,37.6-37,38.8
		c-20.9,1.2-38.3-14.3-38.8-34.5C-1044.6,373.6-1028,356.2-1007.1,355z"/>
	<path id="XMLID_183_" class="st23" d="M-1007.1,355c20.9-1.2,38.3,14.3,38.8,34.5s-16.1,37.6-37,38.8
		c-20.9,1.2-38.3-14.3-38.8-34.5C-1044.6,373.6-1028,356.2-1007.1,355z"/>
</g>
<g id="XMLID_179_">
	<path id="XMLID_181_" class="st24" d="M-1007,358.1c19.1-1.1,35,13.1,35.5,31.6s-14.7,34.5-33.8,35.5c-19.1,1.1-35-13.1-35.5-31.6
		S-1026.2,359.2-1007,358.1z"/>
	<path id="XMLID_180_" class="st23" d="M-1007,358.1c19.1-1.1,35,13.1,35.5,31.6s-14.7,34.5-33.8,35.5c-19.1,1.1-35-13.1-35.5-31.6
		S-1026.2,359.2-1007,358.1z"/>
</g>
<g id="XMLID_170_">
	<g id="XMLID_176_">
		<path id="XMLID_178_" class="st25" d="M-1059.3,481.8l-12.2,7.9c-1.2,0.8-2.8,0.5-3.6-0.8l-3.9-6.6c-1.5-2.6-3.8-4.6-6.6-5.6
			l-5-2.1l-0.9-0.4c-0.4-0.2-0.7-0.5-0.9-0.9l-1.5-2.6l-2.8-4.8l-0.9-1.6l0,0l-1.1-1.8l-1.8-3.2l-2.7-4.8l-1.3-2.3l-0.5-1l-1.7-2.9
			l-2.4-4.3l-0.4-0.7l-3.3-5.7c-0.9-1.6-1.3-3.3-1.2-5.1l0.5-15.4c0-2.1-0.6-4.1-1.9-5.8l-1.6-1.9c-0.8-1-0.5-2.6,0.8-3.2l12.9-5.9
			l10.3,19.2l0.2,0.5l2.1,4l1.6,3l1.2,2.2l1.3,2.4l2,3.8l2.4,4.4l0.3,0.7l1.5,2.8l2.7,4.9l0,0l1.9,3.7L-1059.3,481.8z"/>
		<path id="XMLID_177_" class="st22" d="M-1059.3,481.8l-12.2,7.9c-1.2,0.8-2.8,0.5-3.6-0.8l-3.9-6.6c-1.5-2.6-3.8-4.6-6.6-5.6
			l-5-2.1l-0.9-0.4c-0.4-0.2-0.7-0.5-0.9-0.9l-1.5-2.6l-2.8-4.8l-0.9-1.6l0,0l-1.1-1.8l-1.8-3.2l-2.7-4.8l-1.3-2.3l-0.5-1l-1.7-2.9
			l-2.4-4.3l-0.4-0.7l-3.3-5.7c-0.9-1.6-1.3-3.3-1.2-5.1l0.5-15.4c0-2.1-0.6-4.1-1.9-5.8l-1.6-1.9c-0.8-1-0.5-2.6,0.8-3.2l12.9-5.9
			l10.3,19.2l0.2,0.5l2.1,4l1.6,3l1.2,2.2l1.3,2.4l2,3.8l2.4,4.4l0.3,0.7l1.5,2.8l2.7,4.9l0,0l1.9,3.7L-1059.3,481.8z"/>
	</g>
	<g id="XMLID_173_" class="st15">
		<path id="XMLID_175_" class="st16" d="M-1059.3,481.8l-12.2,7.9c-1.2,0.8-2.8,0.5-3.6-0.8l-3.9-6.6c-1.5-2.6-3.8-4.6-6.6-5.6
			l-5-2.1l-0.9-0.4c-0.4-0.2-0.7-0.5-0.9-0.9l-1.5-2.6l-2.8-4.8l-0.9-1.6l0,0l-1.1-1.8l-1.8-3.2l-2.7-4.8l-1.3-2.3l-0.5-1l-1.7-2.9
			l-2.4-4.3l-0.4-0.7l-3.3-5.7c-0.9-1.6-1.3-3.3-1.2-5.1l0.5-15.4c0-2.1-0.6-4.1-1.9-5.8l-1.6-1.9c-0.8-1-0.5-2.6,0.8-3.2l12.9-5.9
			l10.3,19.2l0.2,0.5l2.1,4l1.6,3l1.2,2.2l1.3,2.4l2,3.8l2.4,4.4l0.3,0.7l1.5,2.8l2.7,4.9l0,0l1.9,3.7L-1059.3,481.8z"/>
		<path id="XMLID_174_" class="st26" d="M-1059.3,481.8l-12.2,7.9c-1.2,0.8-2.8,0.5-3.6-0.8l-3.9-6.6c-1.5-2.6-3.8-4.6-6.6-5.6
			l-5-2.1l-0.9-0.4c-0.4-0.2-0.7-0.5-0.9-0.9l-1.5-2.6l-2.8-4.8l-0.9-1.6l0,0l-1.1-1.8l-1.8-3.2l-2.7-4.8l-1.3-2.3l-0.5-1l-1.7-2.9
			l-2.4-4.3l-0.4-0.7l-3.3-5.7c-0.9-1.6-1.3-3.3-1.2-5.1l0.5-15.4c0-2.1-0.6-4.1-1.9-5.8l-1.6-1.9c-0.8-1-0.5-2.6,0.8-3.2l12.9-5.9
			l10.3,19.2l0.2,0.5l2.1,4l1.6,3l1.2,2.2l1.3,2.4l2,3.8l2.4,4.4l0.3,0.7l1.5,2.8l2.7,4.9l0,0l1.9,3.7L-1059.3,481.8z"/>
	</g>
</g>
<g id="XMLID_168_" class="st27">
	<path id="XMLID_169_" class="st28" d="M-1072.8,489.2c-0.6,0-1.1-0.2-1.4-0.7l-3.9-6.6c-1.6-2.8-4.1-4.9-7.1-6l-5-2.1l-0.9-0.4
		c-0.2-0.1-0.4-0.3-0.5-0.5l-1.5-2.6l-2.8-4.8l-0.7-1.4l-0.1-0.2l-2.9-5l-4-7.1l-5.1-9l-3.3-5.7c-0.7-1.4-1.2-2.9-1.1-4.5l0.5-15.4
		c0-2.3-0.7-4.6-2.1-6.5l-1.6-1.9c-0.2-0.2-0.2-0.6-0.2-0.9c0.1-0.3,0.3-0.5,0.6-0.7l12.1-5.5l10.1,18.8l2.1,4l1.6,3l1.2,2.2
		l7.6,13.9l2.6,4.7l0.1,0.2l17.8,32.9l-11.4,7.4C-1072.3,489-1072.5,489.2-1072.8,489.2z"/>
</g>
<polygon id="XMLID_167_" class="st29" points="-1078.2,445.6 -1094,469.9 -1096.8,465 -1098.1,462.8 -1098.6,461.8 -1082.5,437.3 
	-1081.4,439.5 -1080.1,441.8 "/>
<polygon id="XMLID_166_" class="st29" points="-1084.1,434.4 -1100.2,458.9 -1102.8,454.6 -1086.6,429.9 -1086.4,430.3 "/>
<path id="XMLID_165_" class="st22" d="M-1059.3,481.8l-12.2,7.9c-1.2,0.8-2.8,0.5-3.6-0.8l-3.9-6.6c-1.5-2.6-3.8-4.6-6.6-5.6l-5-2.1
	l-0.9-0.4c-0.4-0.2-0.7-0.5-0.9-0.9l-1.5-2.6l-2.8-4.8l-0.9-1.6l0,0l-1.1-1.8l-1.8-3.2l-2.7-4.8l-1.3-2.3l-0.5-1l-1.7-2.9l-2.4-4.3
	l-0.4-0.7l-3.3-5.7c-0.9-1.6-1.3-3.3-1.2-5.1l0.5-15.4c0-2.1-0.6-4.1-1.9-5.8l-1.6-1.9c-0.8-1-0.5-2.6,0.8-3.2l12.9-5.9l10.3,19.2
	l0.2,0.5l2.1,4l1.6,3l1.2,2.2l1.3,2.4l2,3.8l2.4,4.4l0.3,0.7l1.5,2.8l2.7,4.9l0,0l1.9,3.7L-1059.3,481.8z"/>
<path id="XMLID_164_" class="st22" d="M-1059.3,481.8l-12.2,7.9c-1.2,0.8-2.8,0.5-3.6-0.8l-3.9-6.6c-1.5-2.6-3.8-4.6-6.6-5.6l-5-2.1
	l-0.9-0.4c-0.4-0.2-0.7-0.5-0.9-0.9l-1.5-2.6l-2.8-4.8l-0.9-1.6l0,0l-1.1-1.8l-1.8-3.2l-2.7-4.8l-1.3-2.3l-0.5-1l-1.7-2.9l-2.4-4.3
	l-0.4-0.7l-3.3-5.7c-0.9-1.6-1.3-3.3-1.2-5.1l0.5-15.4c0-2.1-0.6-4.1-1.9-5.8l-1.6-1.9c-0.8-1-0.5-2.6,0.8-3.2l12.9-5.9l10.3,19.2
	l0.2,0.5l2.1,4l1.6,3l1.2,2.2l1.3,2.4l2,3.8l2.4,4.4l0.3,0.7l1.5,2.8l2.7,4.9l0,0l1.9,3.7L-1059.3,481.8z"/>
<g id="XMLID_157_">
	<path id="XMLID_163_" class="st22" d="M-1106.4,428.5c1.1-0.1,2.1,0.8,2.1,1.9s-0.9,2.1-2,2.1c-1.1,0.1-2.1-0.8-2.1-1.9
		S-1107.5,428.6-1106.4,428.5z"/>
	<path id="XMLID_162_" class="st22" d="M-1102.2,435.6c1.1-0.1,2.1,0.8,2.1,1.9s-0.9,2.1-2,2.1c-1.1,0.1-2.1-0.8-2.1-1.9
		S-1103.3,435.7-1102.2,435.6z"/>
	<path id="XMLID_161_" class="st22" d="M-1098.3,442.1c1.1-0.1,2.1,0.8,2.1,1.9s-0.9,2.1-2,2.1c-1.1,0.1-2.1-0.8-2.1-1.9
		S-1099.4,442.2-1098.3,442.1z"/>
	<path id="XMLID_160_" class="st22" d="M-1094.3,449.3c1.1-0.1,2.1,0.8,2.1,1.9s-0.9,2.1-2,2.1c-1.1,0.1-2.1-0.8-2.1-1.9
		C-1096.4,450.3-1095.5,449.4-1094.3,449.3z"/>
	<path id="XMLID_159_" class="st22" d="M-1090.5,456.3c1.1-0.1,2.1,0.8,2.1,1.9s-0.9,2.1-2,2.1c-1.1,0.1-2.1-0.8-2.1-1.9
		C-1092.5,457.4-1091.6,456.4-1090.5,456.3z"/>
	<path id="XMLID_158_" class="st22" d="M-1086.8,463.4c1.1-0.1,2.1,0.8,2.1,1.9s-0.9,2.1-2,2.1c-1.1,0.1-2.1-0.8-2.1-1.9
		S-1087.9,463.4-1086.8,463.4z"/>
</g>
<g id="XMLID_138_">
	<g id="XMLID_154_">
		<path id="XMLID_156_" class="st30" d="M-1106.2,428.2c1.1-0.1,2.1,0.8,2.1,1.9s-0.9,2.1-2,2.1c-1.1,0.1-2.1-0.8-2.1-1.9
			S-1107.3,428.2-1106.2,428.2z"/>
		<path id="XMLID_155_" class="st31" d="M-1106.2,428.2c1.1-0.1,2.1,0.8,2.1,1.9s-0.9,2.1-2,2.1c-1.1,0.1-2.1-0.8-2.1-1.9
			S-1107.3,428.2-1106.2,428.2z"/>
	</g>
	<g id="XMLID_151_">
		<path id="XMLID_153_" class="st30" d="M-1102,435.3c1.1-0.1,2.1,0.8,2.1,1.9s-0.9,2.1-2,2.1c-1.1,0.1-2.1-0.8-2.1-1.9
			S-1103.1,435.3-1102,435.3z"/>
		<path id="XMLID_152_" class="st31" d="M-1102,435.3c1.1-0.1,2.1,0.8,2.1,1.9s-0.9,2.1-2,2.1c-1.1,0.1-2.1-0.8-2.1-1.9
			S-1103.1,435.3-1102,435.3z"/>
	</g>
	<g id="XMLID_148_">
		<path id="XMLID_150_" class="st30" d="M-1098.1,441.8c1.1-0.1,2.1,0.8,2.1,1.9s-0.9,2.1-2,2.1c-1.1,0.1-2.1-0.8-2.1-1.9
			S-1099.2,441.8-1098.1,441.8z"/>
		<path id="XMLID_149_" class="st31" d="M-1098.1,441.8c1.1-0.1,2.1,0.8,2.1,1.9s-0.9,2.1-2,2.1c-1.1,0.1-2.1-0.8-2.1-1.9
			S-1099.2,441.8-1098.1,441.8z"/>
	</g>
	<g id="XMLID_145_">
		<path id="XMLID_147_" class="st30" d="M-1094.2,449c1.1-0.1,2.1,0.8,2.1,1.9s-0.9,2.1-2,2.1c-1.1,0.1-2.1-0.8-2.1-1.9
			S-1095.3,449.1-1094.2,449z"/>
		<path id="XMLID_146_" class="st31" d="M-1094.2,449c1.1-0.1,2.1,0.8,2.1,1.9s-0.9,2.1-2,2.1c-1.1,0.1-2.1-0.8-2.1-1.9
			S-1095.3,449.1-1094.2,449z"/>
	</g>
	<g id="XMLID_142_">
		<path id="XMLID_144_" class="st30" d="M-1090.3,455.9c1.1-0.1,2.1,0.8,2.1,1.9s-0.9,2.1-2,2.1c-1.1,0.1-2.1-0.8-2.1-1.9
			S-1091.4,456-1090.3,455.9z"/>
		<path id="XMLID_143_" class="st31" d="M-1090.3,455.9c1.1-0.1,2.1,0.8,2.1,1.9s-0.9,2.1-2,2.1c-1.1,0.1-2.1-0.8-2.1-1.9
			S-1091.4,456-1090.3,455.9z"/>
	</g>
	<g id="XMLID_139_">
		<path id="XMLID_141_" class="st30" d="M-1086.6,462.9c1.1-0.1,2.1,0.8,2.1,1.9s-0.9,2.1-2,2.1c-1.1,0.1-2.1-0.8-2.1-1.9
			C-1088.6,464-1087.7,463-1086.6,462.9z"/>
		<path id="XMLID_140_" class="st31" d="M-1086.6,462.9c1.1-0.1,2.1,0.8,2.1,1.9s-0.9,2.1-2,2.1c-1.1,0.1-2.1-0.8-2.1-1.9
			C-1088.6,464-1087.7,463-1086.6,462.9z"/>
	</g>
</g>
<g id="XMLID_135_">
	<path id="XMLID_137_" class="st16" d="M-731.7,206.5c0.3,0,0.5,0.2,0.5,0.5s-0.2,0.5-0.5,0.5s-0.5-0.2-0.5-0.5
		C-732.2,206.8-732,206.5-731.7,206.5z"/>
	<path id="XMLID_136_" class="st23" d="M-731.7,206.5c0.3,0,0.5,0.2,0.5,0.5s-0.2,0.5-0.5,0.5s-0.5-0.2-0.5-0.5
		C-732.2,206.8-732,206.5-731.7,206.5z"/>
</g>
<g id="XMLID_132_">
	<path id="XMLID_134_" class="st16" d="M-730,209c0.3,0,0.5,0.2,0.5,0.5s-0.2,0.5-0.5,0.5s-0.5-0.2-0.5-0.5S-730.3,209-730,209z"/>
	<path id="XMLID_133_" class="st23" d="M-730,209c0.3,0,0.5,0.2,0.5,0.5s-0.2,0.5-0.5,0.5s-0.5-0.2-0.5-0.5S-730.3,209-730,209z"/>
</g>
<g id="XMLID_129_">
	<path id="XMLID_131_" class="st16" d="M-728.4,211.4c0.3,0,0.5,0.2,0.5,0.5c0,0.3-0.2,0.5-0.5,0.5s-0.5-0.2-0.5-0.5
		C-728.9,211.7-728.6,211.4-728.4,211.4z"/>
	<path id="XMLID_130_" class="st23" d="M-728.4,211.4c0.3,0,0.5,0.2,0.5,0.5c0,0.3-0.2,0.5-0.5,0.5s-0.5-0.2-0.5-0.5
		C-728.9,211.7-728.6,211.4-728.4,211.4z"/>
</g>
<g id="XMLID_126_">
	<path id="XMLID_128_" class="st16" d="M-726.7,213.9c0.3,0,0.5,0.2,0.5,0.5c0,0.3-0.2,0.5-0.5,0.5s-0.5-0.2-0.5-0.5
		C-727.2,214.1-727,213.9-726.7,213.9z"/>
	<path id="XMLID_127_" class="st23" d="M-726.7,213.9c0.3,0,0.5,0.2,0.5,0.5c0,0.3-0.2,0.5-0.5,0.5s-0.5-0.2-0.5-0.5
		C-727.2,214.1-727,213.9-726.7,213.9z"/>
</g>
<g id="XMLID_123_">
	<path id="XMLID_125_" class="st16" d="M-725,216.3c0.3,0,0.5,0.2,0.5,0.5s-0.2,0.5-0.5,0.5s-0.5-0.2-0.5-0.5
		S-725.3,216.3-725,216.3z"/>
	<path id="XMLID_124_" class="st23" d="M-725,216.3c0.3,0,0.5,0.2,0.5,0.5s-0.2,0.5-0.5,0.5s-0.5-0.2-0.5-0.5
		S-725.3,216.3-725,216.3z"/>
</g>
<g id="XMLID_120_">
	<path id="XMLID_122_" class="st16" d="M-723.3,218.8c0.3,0,0.5,0.2,0.5,0.5s-0.2,0.5-0.5,0.5s-0.5-0.2-0.5-0.5
		S-723.6,218.8-723.3,218.8z"/>
	<path id="XMLID_121_" class="st23" d="M-723.3,218.8c0.3,0,0.5,0.2,0.5,0.5s-0.2,0.5-0.5,0.5s-0.5-0.2-0.5-0.5
		S-723.6,218.8-723.3,218.8z"/>
</g>
<g id="XMLID_103_">
	<g id="XMLID_117_">
		<line id="XMLID_119_" class="st0" x1="-952.8" y1="380.7" x2="-972.6" y2="346.9"/>
		<line id="XMLID_118_" class="st32" x1="-952.8" y1="380.7" x2="-972.6" y2="346.9"/>
	</g>
	<line id="XMLID_116_" class="st32" x1="-926.6" y1="318.6" x2="-906.2" y2="350.3"/>
	<line id="XMLID_115_" class="st32" x1="-905.5" y1="306.1" x2="-886.3" y2="337.7"/>
	<line id="XMLID_114_" class="st32" x1="-885" y1="293.7" x2="-865.7" y2="324"/>
	<line id="XMLID_113_" class="st32" x1="-866" y1="282.2" x2="-847.1" y2="312.2"/>
	<line id="XMLID_112_" class="st32" x1="-849" y1="271.8" x2="-831.2" y2="301.1"/>
	<line id="XMLID_111_" class="st32" x1="-831.5" y1="261.2" x2="-813.4" y2="289.5"/>
	<line id="XMLID_110_" class="st32" x1="-814.3" y1="251" x2="-797.2" y2="278.5"/>
	<line id="XMLID_109_" class="st32" x1="-800.3" y1="242.3" x2="-783.8" y2="270.1"/>
	<line id="XMLID_108_" class="st32" x1="-786.9" y1="234.2" x2="-770.3" y2="261.4"/>
	<line id="XMLID_107_" class="st32" x1="-772.2" y1="225.2" x2="-756.5" y2="252.2"/>
	<line id="XMLID_106_" class="st32" x1="-759.8" y1="217.7" x2="-743.6" y2="243.9"/>
	<line id="XMLID_105_" class="st32" x1="-746.8" y1="209.9" x2="-731.6" y2="235.1"/>
	<line id="XMLID_104_" class="st32" x1="-950" y1="332.8" x2="-930.5" y2="365.7"/>
</g>
<line id="XMLID_102_" class="st31" x1="-1104.7" y1="429.9" x2="-731.2" y2="207.1"/>
<line id="XMLID_101_" class="st31" x1="-1100.9" y1="436.6" x2="-730" y2="209.5"/>
<line id="XMLID_100_" class="st31" x1="-1096.9" y1="443.3" x2="-728.3" y2="211.9"/>
<line id="XMLID_99_" class="st31" x1="-1093" y1="450.1" x2="-726.7" y2="214.4"/>
<line id="XMLID_98_" class="st31" x1="-1089.1" y1="456.8" x2="-725" y2="216.8"/>
<line id="XMLID_97_" class="st31" x1="-1085.1" y1="463.5" x2="-723.3" y2="219.3"/>
<g id="XMLID_88_">
	<g id="XMLID_94_">
		<path id="XMLID_96_" class="st5" d="M-632,188.4l-47.3,21.9l-9.4,4.3l-2.7,1.3l-2.8,1.3c0,0-9.3-2.1-16.3-0.9
			c-2.1,0.3-4,1-5.4,2.1l-10.4-14.8c0,0,7.4-2.6,7.8-13c0.1-1.1,10.2-5.6,11.4-6.1c3.3-1.8,6.6-3.6,9.9-5.5c4.8-2.6,9.7-5.2,14.6-8
			c3-1.6,6-3.3,8.9-4.9c0.9-0.6,1.8-1,2.8-1.5c3.2-1.8,6.4-3.5,9.6-5.2c0.3-0.2,0.7-0.3,1-0.6c2.1-1.1,4.2-2.6,6.4-3.5
			c2.9-1.2,3.6,1.2,4.4,3.6c1.4,4.9,4.3,9.3,7.5,13.2c3.2,3.8,7.4,6.6,10.3,10.4C-630,184.5-629.6,186.9-632,188.4z"/>
		<path id="XMLID_95_" class="st23" d="M-632,188.4l-47.3,21.9l-9.4,4.3l-2.7,1.3l-2.8,1.3c0,0-9.3-2.1-16.3-0.9
			c-2.1,0.3-4,1-5.4,2.1l-10.4-14.8c0,0,7.4-2.6,7.8-13c0.1-1.1,10.2-5.6,11.4-6.1c3.3-1.8,6.6-3.6,9.9-5.5c4.8-2.6,9.7-5.2,14.6-8
			c3-1.6,6-3.3,8.9-4.9c0.9-0.6,1.8-1,2.8-1.5c3.2-1.8,6.4-3.5,9.6-5.2c0.3-0.2,0.7-0.3,1-0.6c2.1-1.1,4.2-2.6,6.4-3.5
			c2.9-1.2,3.6,1.2,4.4,3.6c1.4,4.9,4.3,9.3,7.5,13.2c3.2,3.8,7.4,6.6,10.3,10.4C-630,184.5-629.6,186.9-632,188.4z"/>
	</g>
	<g id="XMLID_91_" class="st15">
		<path id="XMLID_93_" class="st16" d="M-632,188.4l-47.3,21.9l-9.4,4.3l-2.7,1.3l-2.8,1.3c0,0-9.3-2.1-16.3-0.9
			c-2.1,0.3-4,1-5.4,2.1l-10.4-14.8c0,0,7.4-2.6,7.8-13c0.1-1.1,10.2-5.6,11.4-6.1c3.3-1.8,6.6-3.6,9.9-5.5c4.8-2.6,9.7-5.2,14.6-8
			c3-1.6,6-3.3,8.9-4.9c0.9-0.6,1.8-1,2.8-1.5c3.2-1.8,6.4-3.5,9.6-5.2c0.3-0.2,0.7-0.3,1-0.6c2.1-1.1,4.2-2.6,6.4-3.5
			c2.9-1.2,3.6,1.2,4.4,3.6c1.4,4.9,4.3,9.3,7.5,13.2c3.2,3.8,7.4,6.6,10.3,10.4C-630,184.5-629.6,186.9-632,188.4z"/>
		<path id="XMLID_92_" class="st33" d="M-632,188.4l-47.3,21.9l-9.4,4.3l-2.7,1.3l-2.8,1.3c0,0-9.3-2.1-16.3-0.9
			c-2.1,0.3-4,1-5.4,2.1l-10.4-14.8c0,0,7.4-2.6,7.8-13c0.1-1.1,10.2-5.6,11.4-6.1c3.3-1.8,6.6-3.6,9.9-5.5c4.8-2.6,9.7-5.2,14.6-8
			c3-1.6,6-3.3,8.9-4.9c0.9-0.6,1.8-1,2.8-1.5c3.2-1.8,6.4-3.5,9.6-5.2c0.3-0.2,0.7-0.3,1-0.6c2.1-1.1,4.2-2.6,6.4-3.5
			c2.9-1.2,3.6,1.2,4.4,3.6c1.4,4.9,4.3,9.3,7.5,13.2c3.2,3.8,7.4,6.6,10.3,10.4C-630,184.5-629.6,186.9-632,188.4z"/>
	</g>
</g>
<g id="XMLID_221_" class="st34">
	<pattern  id="XMLID_287_" xlink:href="#XMLID_285_" patternTransform="matrix(1 0 0 1 -100.7402 15368)"  class="st34">
	</pattern>
	<path id="XMLID_217_" class="st35" d="M-504,83.2l-47.3,21.9l-9.4,4.3l-2.7,1.3l-2.8,1.3c0,0-9.3-2.1-16.3-0.9
		c-2.1,0.3-4,1-5.4,2.1l-10.4-14.8c0,0,7.4-2.6,7.8-13c0.1-1.1,10.2-5.6,11.4-6.1c3.3-1.8,6.6-3.6,9.9-5.5c4.8-2.6,9.7-5.2,14.6-8
		c3-1.6,6-3.3,8.9-4.9c0.9-0.6,1.8-1,2.8-1.5c3.2-1.8,6.4-3.5,9.6-5.2c0.3-0.2,0.7-0.3,1-0.6c2.1-1.1,4.2-2.6,6.4-3.5
		c2.9-1.2,3.6,1.2,4.4,3.6c1.4,4.9,4.3,9.3,7.5,13.2c3.2,3.8,7.4,6.6,10.3,10.4C-502,79.3-501.6,81.7-504,83.2z"/>
</g>
<g id="XMLID_246_">
	<g id="XMLID_229_">
		<path id="XMLID_223_" class="st24" d="M-703.8,188.2c2-0.1,3.6,1.4,3.6,3.4s-1.5,3.7-3.5,3.8s-3.6-1.4-3.6-3.4
			S-705.8,188.3-703.8,188.2z"/>
		<path id="XMLID_224_" class="st26" d="M-703.8,188.2c2-0.1,3.6,1.4,3.6,3.4s-1.5,3.7-3.5,3.8s-3.6-1.4-3.6-3.4
			S-705.8,188.3-703.8,188.2z"/>
	</g>
	<g id="XMLID_233_">
		<path id="XMLID_231_" class="st24" d="M-682.5,175.4c2-0.1,3.6,1.4,3.6,3.4s-1.5,3.7-3.5,3.8c-2,0.1-3.6-1.4-3.6-3.4
			S-684.5,175.5-682.5,175.4z"/>
		<path id="XMLID_232_" class="st26" d="M-682.5,175.4c2-0.1,3.6,1.4,3.6,3.4s-1.5,3.7-3.5,3.8c-2,0.1-3.6-1.4-3.6-3.4
			S-684.5,175.5-682.5,175.4z"/>
	</g>
	<g id="XMLID_236_">
		<path id="XMLID_234_" class="st24" d="M-660.9,164.4c2-0.1,3.6,1.4,3.6,3.4s-1.5,3.7-3.5,3.8c-2,0.1-3.6-1.4-3.6-3.4
			S-662.9,164.5-660.9,164.4z"/>
		<path id="XMLID_235_" class="st26" d="M-660.9,164.4c2-0.1,3.6,1.4,3.6,3.4s-1.5,3.7-3.5,3.8c-2,0.1-3.6-1.4-3.6-3.4
			S-662.9,164.5-660.9,164.4z"/>
	</g>
	<g id="XMLID_239_">
		<path id="XMLID_237_" class="st24" d="M-695.3,203.6c2-0.1,3.6,1.4,3.6,3.4s-1.5,3.7-3.5,3.8c-2,0.1-3.6-1.4-3.6-3.4
			S-697.2,203.8-695.3,203.6z"/>
		<path id="XMLID_238_" class="st26" d="M-695.3,203.6c2-0.1,3.6,1.4,3.6,3.4s-1.5,3.7-3.5,3.8c-2,0.1-3.6-1.4-3.6-3.4
			S-697.2,203.8-695.3,203.6z"/>
	</g>
	<g id="XMLID_242_">
		<path id="XMLID_240_" class="st24" d="M-673.5,191.7c2-0.1,3.6,1.4,3.6,3.4s-1.5,3.7-3.5,3.8s-3.6-1.4-3.6-3.4
			S-675.4,191.8-673.5,191.7z"/>
		<path id="XMLID_241_" class="st26" d="M-673.5,191.7c2-0.1,3.6,1.4,3.6,3.4s-1.5,3.7-3.5,3.8s-3.6-1.4-3.6-3.4
			S-675.4,191.8-673.5,191.7z"/>
	</g>
	<g id="XMLID_245_">
		<path id="XMLID_243_" class="st24" d="M-651.5,181.7c2-0.1,3.6,1.4,3.6,3.4s-1.5,3.7-3.5,3.8c-2,0.1-3.6-1.4-3.6-3.4
			S-653.5,181.8-651.5,181.7z"/>
		<path id="XMLID_244_" class="st26" d="M-651.5,181.7c2-0.1,3.6,1.4,3.6,3.4s-1.5,3.7-3.5,3.8c-2,0.1-3.6-1.4-3.6-3.4
			S-653.5,181.8-651.5,181.7z"/>
	</g>
</g>
<g id="XMLID_265_">
	<g id="XMLID_249_">
		<path id="XMLID_247_" class="st30" d="M-703.6,187.8c2-0.1,3.6,1.4,3.6,3.4s-1.5,3.7-3.5,3.8s-3.6-1.4-3.6-3.4
			S-705.6,187.9-703.6,187.8z"/>
		<path id="XMLID_248_" class="st23" d="M-703.6,187.8c2-0.1,3.6,1.4,3.6,3.4s-1.5,3.7-3.5,3.8s-3.6-1.4-3.6-3.4
			S-705.6,187.9-703.6,187.8z"/>
	</g>
	<g id="XMLID_252_">
		<path id="XMLID_250_" class="st30" d="M-682.3,175c2-0.1,3.6,1.4,3.6,3.4s-1.5,3.7-3.5,3.8c-2,0.1-3.6-1.4-3.6-3.4
			S-684.3,175.1-682.3,175z"/>
		<path id="XMLID_251_" class="st23" d="M-682.3,175c2-0.1,3.6,1.4,3.6,3.4s-1.5,3.7-3.5,3.8c-2,0.1-3.6-1.4-3.6-3.4
			S-684.3,175.1-682.3,175z"/>
	</g>
	<g id="XMLID_255_">
		<path id="XMLID_253_" class="st30" d="M-660.8,164.1c2-0.1,3.6,1.4,3.6,3.4s-1.5,3.7-3.5,3.8c-2,0.1-3.6-1.4-3.6-3.4
			S-662.8,164.2-660.8,164.1z"/>
		<path id="XMLID_254_" class="st23" d="M-660.8,164.1c2-0.1,3.6,1.4,3.6,3.4s-1.5,3.7-3.5,3.8c-2,0.1-3.6-1.4-3.6-3.4
			S-662.8,164.2-660.8,164.1z"/>
	</g>
	<g id="XMLID_258_">
		<path id="XMLID_256_" class="st30" d="M-695.2,203.2c2-0.1,3.6,1.4,3.6,3.4s-1.5,3.7-3.5,3.8s-3.6-1.4-3.6-3.4
			S-697.1,203.3-695.2,203.2z"/>
		<path id="XMLID_257_" class="st23" d="M-695.2,203.2c2-0.1,3.6,1.4,3.6,3.4s-1.5,3.7-3.5,3.8s-3.6-1.4-3.6-3.4
			S-697.1,203.3-695.2,203.2z"/>
	</g>
	<g id="XMLID_261_">
		<path id="XMLID_259_" class="st30" d="M-673.4,191.3c2-0.1,3.6,1.4,3.6,3.4s-1.5,3.7-3.5,3.8s-3.6-1.4-3.6-3.4
			S-675.3,191.4-673.4,191.3z"/>
		<path id="XMLID_260_" class="st23" d="M-673.4,191.3c2-0.1,3.6,1.4,3.6,3.4s-1.5,3.7-3.5,3.8s-3.6-1.4-3.6-3.4
			S-675.3,191.4-673.4,191.3z"/>
	</g>
	<g id="XMLID_264_">
		<path id="XMLID_262_" class="st30" d="M-651.4,181.3c2-0.1,3.6,1.4,3.6,3.4s-1.5,3.7-3.5,3.8s-3.6-1.4-3.6-3.4
			S-653.4,181.4-651.4,181.3z"/>
		<path id="XMLID_263_" class="st23" d="M-651.4,181.3c2-0.1,3.6,1.4,3.6,3.4s-1.5,3.7-3.5,3.8s-3.6-1.4-3.6-3.4
			S-653.4,181.4-651.4,181.3z"/>
	</g>
</g>
<g id="XMLID_268_">
	<path id="XMLID_266_" class="st5" d="M-666.8,159.1l-2.2-5.1c-0.1-0.4,0-0.8,0.4-0.9c0.9-0.4,2.7-1.4,4.3-3.4
		c0.2-0.2,0.2-0.5,0.1-0.7l-1.9-4.1c-0.1-0.2-0.3-0.4-0.5-0.4c-1.6-0.1-8.2-0.4-12.7,5.7c-0.2,0.2-0.2,0.5-0.1,0.7l1.9,4.2
		c0.1,0.2,0.3,0.4,0.6,0.4c0.8,0,2.6-0.1,4.7-0.9c0.3-0.1,0.7,0,0.9,0.4l2.3,5L-666.8,159.1z"/>
	<path id="XMLID_267_" class="st6" d="M-666.8,159.1l-2.2-5.1c-0.1-0.4,0-0.8,0.4-0.9c0.9-0.4,2.7-1.4,4.3-3.4
		c0.2-0.2,0.2-0.5,0.1-0.7l-1.9-4.1c-0.1-0.2-0.3-0.4-0.5-0.4c-1.6-0.1-8.2-0.4-12.7,5.7c-0.2,0.2-0.2,0.5-0.1,0.7l1.9,4.2
		c0.1,0.2,0.3,0.4,0.6,0.4c0.8,0,2.6-0.1,4.7-0.9c0.3-0.1,0.7,0,0.9,0.4l2.3,5L-666.8,159.1z"/>
</g>
<g id="XMLID_271_">
	<path id="XMLID_269_" class="st5" d="M-689.1,170.8l-2.2-5c-0.1-0.3,0-0.7,0.4-0.9c0.9-0.4,2.6-1.3,4.2-3.3
		c0.2-0.2,0.2-0.5,0.1-0.7l-1.8-4c-0.1-0.2-0.3-0.4-0.5-0.4c-1.6-0.1-7.9-0.3-12.3,5.6c-0.2,0.2-0.2,0.5-0.1,0.7l1.9,4.1
		c0.1,0.2,0.3,0.4,0.6,0.4c0.8,0,2.5-0.1,4.5-0.9c0.3-0.1,0.7,0,0.8,0.4l2.3,4.8L-689.1,170.8z"/>
	<path id="XMLID_270_" class="st6" d="M-689.1,170.8l-2.2-5c-0.1-0.3,0-0.7,0.4-0.9c0.9-0.4,2.6-1.3,4.2-3.3
		c0.2-0.2,0.2-0.5,0.1-0.7l-1.8-4c-0.1-0.2-0.3-0.4-0.5-0.4c-1.6-0.1-7.9-0.3-12.3,5.6c-0.2,0.2-0.2,0.5-0.1,0.7l1.9,4.1
		c0.1,0.2,0.3,0.4,0.6,0.4c0.8,0,2.5-0.1,4.5-0.9c0.3-0.1,0.7,0,0.8,0.4l2.3,4.8L-689.1,170.8z"/>
</g>
<g id="XMLID_274_">
	<path id="XMLID_272_" class="st5" d="M-709.6,183.4l-2.3-4.9c-0.1-0.3,0-0.7,0.4-0.9c0.9-0.5,2.6-1.4,4.1-3.4
		c0.2-0.2,0.2-0.5,0.1-0.7l-1.9-4c-0.1-0.2-0.3-0.4-0.5-0.4c-1.6-0.1-7.9-0.1-12.1,5.9c-0.1,0.2-0.2,0.5-0.1,0.7l2,4
		c0.1,0.2,0.3,0.4,0.6,0.4c0.8,0,2.5-0.2,4.5-1.1c0.3-0.1,0.7,0,0.8,0.3l2.4,4.8L-709.6,183.4z"/>
	<path id="XMLID_273_" class="st6" d="M-709.6,183.4l-2.3-4.9c-0.1-0.3,0-0.7,0.4-0.9c0.9-0.5,2.6-1.4,4.1-3.4
		c0.2-0.2,0.2-0.5,0.1-0.7l-1.9-4c-0.1-0.2-0.3-0.4-0.5-0.4c-1.6-0.1-7.9-0.1-12.1,5.9c-0.1,0.2-0.2,0.5-0.1,0.7l2,4
		c0.1,0.2,0.3,0.4,0.6,0.4c0.8,0,2.5-0.2,4.5-1.1c0.3-0.1,0.7,0,0.8,0.3l2.4,4.8L-709.6,183.4z"/>
</g>
<path id="XMLID_275_" class="st36" d="M-899.2,457.8c0,0-0.9,2-5.6,4.7c-4.3,2.5-11.8,5.7-24.6,8.5l-25.8,4.9l-3.6,0.7
	c-5.8,1.1-10.9,4.2-14.6,8.8c-3.6,4.4-8,10.4-11.2,17c-0.8,1.6-1.4,3.1-2,4.7c0,0-11.3,24.6-28.6,49.1c-2.9,4.2-6.1,8.5-9.5,12.6
	c-2.5,3.1-5.2,6.1-8,9c-15.2,15.2-34.4,25.8-55,29.9c-5.7,1.1-11.5,1.8-17.4,1.8c-5.5,0.1-11.3-0.7-17.4-2.2
	c-19.5-4.9-40.6-18.2-59-40.3c-7.2-8.7-13.9-18.8-20-30.3c5.7,10.3,12.9,19.7,21.2,27.5c14.8,14.1,33.5,23.6,55.3,25.4
	c3.3,0.3,6.6,0.4,10.1,0.3c9.3-0.2,17.8-1.8,25.6-4.5c15.5-5.4,28.4-15.2,39.7-27.2c7.8-8.4,14.9-18,21.4-27.9
	c11.1-16.8,20.8-34.8,30.7-50.8c1.2-1.9,2.3-3.8,3.6-5.6c3.8-5.8,9.1-10.5,15.2-13.5c5.3-2.6,11.2-4.9,16.6-6.8
	c11.2-4,20.9-6.4,20.9-6.4c6.3-1.7,17.2-4.6,24.6-9.8c5.7-4,9.3-9.2,7.3-16.1c-0.4-1.5-1-3-1.7-4.3
	C-909.8,418.5-885.1,445.7-899.2,457.8z"/>
<path id="XMLID_276_" class="st4" d="M-959.3,193.7l-7.6,14.2c-1-1.3-2.5-2.2-4.1-2.5c-4.2-1-8.5,1.7-9.6,5.9
	c-1.1,4.2,1.4,8.5,5.6,9.5c2.3,0.5,4.8-0.1,6.7-1.5c1.9-1.4,2.6-3.7,3.5-5.7c1.2-2.4,2.5-4.8,3.8-7.2c1-1.8,1.8-3.6,2.8-5.4
	c0.2-0.4,0.4-0.7,0.6-1.2l7.2,3.4l1.8-4.1L-959.3,193.7z"/>
<path id="XMLID_277_" class="st37" d="M-1025.9,221.7l5.3,24.5c-2.6-0.4-5.3,0-7.8,1.4c-6.2,3.3-8.7,10.9-5.7,17
	c3.1,6.1,10.6,8.4,16.8,5.2c3.4-1.8,5.9-5,6.7-8.7c0.8-3.6-0.7-7-1.5-10.4c-1.1-4.1-1.8-8.4-2.8-12.5c-0.7-3.1-1.4-6.1-2.1-9.3
	c-0.1-0.7-0.3-1.3-0.5-2l12.3-3.7l-1.9-6.7L-1025.9,221.7z"/>
<path id="XMLID_278_" class="st37" d="M-845.5,355.3l-9.4,23.7c-1.9-1.7-4.2-2.9-7.1-3.3c-6.8-0.7-13.1,4.3-14.1,11.2
	s3.9,13,10.7,13.8c3.8,0.4,7.6-0.9,10.3-3.6c2.7-2.6,3.4-6.3,4.6-9.6c1.4-4.1,3.2-8.1,4.7-12.2c1.1-3,2.3-6,3.5-9
	c0.3-0.6,0.5-1.2,0.8-1.9l12,3.9l2.3-6.8L-845.5,355.3z"/>
<path id="XMLID_279_" class="st38" d="M-896.7,87.2l5.5,25.5c-2.7-0.4-5.5,0-8.1,1.4c-6.4,3.4-9.1,11.3-5.9,17.7
	c3.2,6.4,11,8.8,17.4,5.3c3.5-1.8,6.1-5.2,6.9-9.2c0.8-3.8-0.7-7.3-1.6-10.9c-1.1-4.3-1.9-8.7-3-13c-0.7-3.2-1.5-6.4-2.2-9.7
	c-0.1-0.7-0.3-1.4-0.5-2l12.9-3.8l-2-7L-896.7,87.2z"/>
<path id="XMLID_280_" class="st7" d="M-879.4,197l-22.4-5.1l-5.9-1.3l-1.4-0.3l-5.8,23.2c-1-0.7-2.2-1.1-3.4-1.4
	c-6-1.4-12.3,2.5-13.8,8.6s2.1,12.2,8.2,13.6c6.1,1.4,12.2-2.4,13.7-8.4l0,0l6.7-26.4l22.4,5.1l-4,15.7c-1-0.7-2.2-1.1-3.4-1.4
	c-6-1.4-12.3,2.5-13.8,8.6s2.1,12.2,8.2,13.6c6,1.4,12.2-2.4,13.7-8.4l0,0l6.7-26.4l1.9-7.4L-879.4,197z"/>
<path id="XMLID_281_" class="st14" d="M-920.1,389.2c-2.1,4.9-2.1,11.1,2.3,18.8c-5-5.2-10.8-10-14.3-16.2c-3.8-6.8-3.5-13.3-2-18.3
	c1.1-3.6,3.1-6.3,5.8-8.5c2.2-1.9,4.8-3.4,7.6-5.2c2.8-1.7,5.4-3.6,8.3-4.9l11.1,18.7C-901.3,373.6-915.7,378.3-920.1,389.2z"/>
<text id="XMLID_282_" transform="matrix(5.111925e-011 -1.0648 1 4.198730e-011 259.5151 555.5984)" class="st39" style="fill:#4660AC; font-size:110.2948px;">.COM</text>
<text id="XMLID_283_" transform="matrix(1.1029 0 0 1 422.3411 417.1709)" class="st4 st39 st40 st41">start your free lessons here!</text>
</svg>
